<svg xmlns="http://www.w3.org/2000/svg" version="1.1" xmlns:xlink="http://www.w3.org/1999/xlink" xmlns:svgjs="http://svgjs.com/svgjs" width="1440" height="560" preserveAspectRatio="none" viewBox="0 0 1440 560"><g mask="url(&quot;#SvgjsMask1020&quot;)" fill="none"><rect width="1440" height="560" x="0" y="0" fill="#0e2a47"></rect><path d="M1121.2413871447322 290.16352969000445L1207.3854060543533 413.18993858853474 1330.4118149528836 327.04591967891366 1244.2677960432625 204.01951078038337z" fill="rgba(28, 83, 142, 0.4)" class="triangle-float2"></path><path d="M981.092184322865 445.98800762816165L981.092184322865 528.8721448925029 1105.418390219377 487.43007626033227z" fill="rgba(28, 83, 142, 0.4)" class="triangle-float3"></path><path d="M1251.2776562540203 281.4650450591434L1159.9186746558366 263.70665797358134 1142.1602875702747 355.0656395717649 1233.519269168458 372.82402665732695z" fill="rgba(28, 83, 142, 0.4)" class="triangle-float2"></path><path d="M926.9512876345333 391.50381421557825L979.9183307693174 456.9126651727925 992.3601385917476 338.5367710807941z" fill="rgba(28, 83, 142, 0.4)" class="triangle-float1"></path><path d="M1316.1891708240557 463.33446779264153L1342.1895259922962 527.6876050537079 1425.7190542997757 456.510503670814z" fill="rgba(28, 83, 142, 0.4)" class="triangle-float2"></path><path d="M1183.927,318.809C1244.142,319.959,1297.402,282.936,1327.786,230.936C1358.466,178.429,1363.924,114.162,1334.652,60.858C1304.295,5.578,1246.954,-33.271,1183.927,-31.032C1124.018,-28.903,1078.527,17.862,1050.677,70.947C1025.004,119.882,1023.115,176.945,1049.281,225.617C1076.983,277.146,1125.435,317.692,1183.927,318.809" fill="rgba(28, 83, 142, 0.4)" class="triangle-float2"></path><path d="M1262.0046412164124-36.063570961422414L1160.6475973099614-50.30837451500199 1146.4027937563817 51.04866939144915 1247.759837662833 65.29347294502873z" fill="rgba(28, 83, 142, 0.4)" class="triangle-float3"></path><path d="M264.053765838664 84.67467548877696L215.215752782306 244.41661837572815 374.9576956692572 293.25463143208617 423.7957087256152 133.51268854513495z" fill="rgba(28, 83, 142, 0.4)" class="triangle-float3"></path><path d="M1078.0631646710517 538.3937818392297L1138.2585948254646 524.4965717654553 1087.3150646375964 441.1520315707236z" fill="rgba(28, 83, 142, 0.4)" class="triangle-float3"></path><path d="M576.4677818356457-6.353030736607624L570.9983214415122 98.01049065196925 675.3618428300891 103.47995104610274 680.8313032242226-0.8835703424741377z" fill="rgba(28, 83, 142, 0.4)" class="triangle-float1"></path><path d="M1064.9212166054333 326.0285339358397L1121.8637933603477 334.03129120308034 1105.3966408837516 244.61604743708847z" fill="rgba(28, 83, 142, 0.4)" class="triangle-float2"></path><path d="M242.023,649.569C286.513,648.94,330.769,633.251,354.169,595.407C378.742,555.666,378.923,505.564,356.37,464.642C333.002,422.241,290.428,392.873,242.023,391.92C191.991,390.935,144.372,416.498,119.601,459.979C95.062,503.053,97.352,557.014,124.244,598.66C149.111,637.17,196.187,650.217,242.023,649.569" fill="rgba(28, 83, 142, 0.4)" class="triangle-float2"></path><path d="M447.922,386.678C462.12,386.541,475.376,378.684,481.909,366.077C487.997,354.328,483.686,341.067,477.665,329.283C470.83,315.906,462.944,299.621,447.922,299.56C432.854,299.499,424.743,315.688,417.759,329.04C411.462,341.079,406.481,354.705,412.781,366.743C419.474,379.532,433.489,386.817,447.922,386.678" fill="rgba(28, 83, 142, 0.4)" class="triangle-float3"></path><path d="M105.49261103315412 245.23187226166L-43.74655821169851 226.9076063964165 87.16834516791064 394.4710415065126z" fill="rgba(28, 83, 142, 0.4)" class="triangle-float2"></path><path d="M319.3185224232365-84.91062193576028L284.7361469200904 35.6924538962416 405.33922275209227 70.27482939938773 439.9215982552384-50.32824643261414z" fill="rgba(28, 83, 142, 0.4)" class="triangle-float3"></path><path d="M539.2435345917303-19.43625141149901L573.6479856389827 61.615555983037865 654.6997930335195 27.211104935785446 620.2953419862672-53.84070245875144z" fill="rgba(28, 83, 142, 0.4)" class="triangle-float3"></path><path d="M1175.5227607531845 478.03574784608406L1266.5795863598958 314.13346175400363 1102.6773002678153 314.13346175400363z" fill="rgba(28, 83, 142, 0.4)" class="triangle-float2"></path><path d="M762.0243765479983 393.92946692064277L677.7543894125885 396.872239716471 680.6971622084167 481.14222685188076 764.9671493438265 478.19945405605256z" fill="rgba(28, 83, 142, 0.4)" class="triangle-float1"></path><path d="M-112.80313934170567 252.71500053916373L21.994135568103587 324.38798297097446 93.6671179999143 189.59070806116517-41.130156909894964 117.91772562935446z" fill="rgba(28, 83, 142, 0.4)" class="triangle-float1"></path><path d="M816.011994503987 348.7286020042823L755.340665937044 453.8144256449326 860.4264895776944 514.4857542118757 921.0978181446374 409.3999305712253z" fill="rgba(28, 83, 142, 0.4)" class="triangle-float1"></path></g><defs><mask id="SvgjsMask1020"><rect width="1440" height="560" fill="#ffffff"></rect></mask><style>
            @keyframes float1 {
                0%{transform: translate(0, 0)}
                50%{transform: translate(-10px, 0)}
                100%{transform: translate(0, 0)}
            }

            .triangle-float1 {
                animation: float1 5s infinite;
            }

            @keyframes float2 {
                0%{transform: translate(0, 0)}
                50%{transform: translate(-5px, -5px)}
                100%{transform: translate(0, 0)}
            }

            .triangle-float2 {
                animation: float2 4s infinite;
            }

            @keyframes float3 {
                0%{transform: translate(0, 0)}
                50%{transform: translate(0, -10px)}
                100%{transform: translate(0, 0)}
            }

            .triangle-float3 {
                animation: float3 6s infinite;
            }
        </style></defs></svg>