<svg xmlns="http://www.w3.org/2000/svg" version="1.1" xmlns:xlink="http://www.w3.org/1999/xlink" xmlns:svgjs="http://svgjs.com/svgjs" width="1440" height="700" preserveAspectRatio="none" viewBox="0 0 1440 700"><g mask="url(&quot;#SvgjsMask1057&quot;)" fill="none"><rect width="1440" height="700" x="0" y="0" fill="rgba(2, 45, 135, 1)"></rect><path d="M52 700L752 0L1289 0L589 700z" fill="url(#SvgjsLinearGradient1058)"></path><path d="M532.2 700L1232.2 0L1908.7 0L1208.7 700z" fill="url(#SvgjsLinearGradient1058)"></path><path d="M1418 700L718 0L439 0L1139 700z" fill="url(#SvgjsLinearGradient1059)"></path><path d="M916.8 700L216.79999999999995 0L-416.20000000000005 0L283.79999999999995 700z" fill="url(#SvgjsLinearGradient1059)"></path><path d="M941.7159800045051 700L1440 201.71598000450518L1440 700z" fill="url(#SvgjsLinearGradient1058)"></path><path d="M0 700L498.2840199954948 700L 0 201.71598000450518z" fill="url(#SvgjsLinearGradient1059)"></path></g><defs><mask id="SvgjsMask1057"><rect width="1440" height="700" fill="#ffffff"></rect></mask><linearGradient x1="0%" y1="100%" x2="100%" y2="0%" id="SvgjsLinearGradient1058"><stop stop-color="rgba(0, 0, 0, 0.2)" offset="0"></stop><stop stop-opacity="0" stop-color="rgba(0, 0, 0, 0.2)" offset="0.66"></stop></linearGradient><linearGradient x1="100%" y1="100%" x2="0%" y2="0%" id="SvgjsLinearGradient1059"><stop stop-color="rgba(0, 0, 0, 0.2)" offset="0"></stop><stop stop-opacity="0" stop-color="rgba(0, 0, 0, 0.2)" offset="0.66"></stop></linearGradient></defs></svg>